<?xml version="1.0" encoding="utf-8"?>
<!-- Generator: Adobe Illustrator 24.3.0, SVG Export Plug-In . SVG Version: 6.00 Build 0)  -->
<svg version="1.1" id="레이어_1" xmlns="http://www.w3.org/2000/svg" xmlns:xlink="http://www.w3.org/1999/xlink" x="0px"
	 y="0px" viewBox="0 0 641.3 196.1" style="enable-background:new 0 0 641.3 196.1;" xml:space="preserve">
<style type="text/css">
	.st0{fill:#FFFFFF;}
</style>
<g>
	<g>
		<path class="st0" d="M98,8.9C73.5,23.5,49.5,38.8,26,54.8c-5.3,3.6-0.3,12.3,5,8.6c23.5-16,47.5-31.4,72-45.9
			C108.6,14.3,103.6,5.6,98,8.9L98,8.9z"/>
	</g>
</g>
<g>
	<g>
		<path class="st0" d="M35.4,70.4C54,84,75.7,93.2,93.4,108.1c4.9,4.1,12-2.9,7.1-7.1C82.1,85.5,59.8,75.9,40.4,61.8
			C35.2,58,30.2,66.7,35.4,70.4L35.4,70.4z"/>
	</g>
</g>
<g>
	<g>
		<path class="st0" d="M101.9,24.5c15.1,12.2,31.3,22.7,48.8,31.1c5.8,2.8,10.9-5.9,5.1-8.6c-16.7-8-32.4-17.8-46.8-29.5
			C104,13.4,96.9,20.5,101.9,24.5L101.9,24.5z"/>
	</g>
</g>
<g>
	<g>
		<path class="st0" d="M152.5,51.5C134.3,70.2,113.6,86,90.8,98.8c-5.6,3.1-0.6,11.8,5.1,8.6c23.5-13.1,45-29.6,63.8-48.8
			C164.1,54,157,46.9,152.5,51.5L152.5,51.5z"/>
	</g>
</g>
<g>
	<g>
		<path class="st0" d="M87.1,107.2c2.8,22.3,3.6,44.7,2.5,67.2c-0.3,6.4,9.7,6.4,10,0c1.1-22.4,0.2-44.9-2.5-67.2
			C96.3,100.8,86.3,100.8,87.1,107.2L87.1,107.2z"/>
	</g>
</g>
<g>
	<g>
		<path class="st0" d="M28.1,60.6c-3.8,25.8-5.2,51.7-4,77.7c0.3,6.4,10.3,6.4,10,0c-1.1-25.1,0-50.2,3.6-75.1
			C38.7,57,29,54.2,28.1,60.6L28.1,60.6z"/>
	</g>
</g>
<g>
	<g>
		<path class="st0" d="M26.6,148.3c19.1,13.9,39,26.5,59.7,37.9c5.6,3.1,10.7-5.5,5.1-8.6c-20.7-11.4-40.6-24-59.7-37.9
			C26.4,135.9,21.5,144.5,26.6,148.3L26.6,148.3z"/>
	</g>
</g>
<g>
	<g>
		<path class="st0" d="M94.7,185.6c3.6-6.8,9.6-11.1,15.9-15.1c7.3-4.6,14.8-8.8,22.5-12.6c12.9-6.3,26-11.6,34.8-23.5
			c3.8-5.2-4.8-10.2-8.6-5.1c-8.9,12-25.4,16.7-38,23.4c-12.7,6.8-28.2,14.4-35.2,27.7C83.1,186.2,91.7,191.3,94.7,185.6L94.7,185.6
			z"/>
	</g>
</g>
<g>
	<g>
		<path class="st0" d="M150.3,57.7c6.8,26.6,9.3,54,7.6,81.5c-0.4,6.4,9.6,6.4,10,0c1.7-28.3-1-56.7-8-84.1
			C158.4,48.8,148.7,51.5,150.3,57.7L150.3,57.7z"/>
	</g>
</g>
<g>
	<g>
		<path class="st0" d="M217.7,54.5c3.4,4.6,6.8,9.1,10.2,13.7c0.7,0.9,2.1,1.5,3.2,1.5c1.1,0,2.4-0.5,3.2-1.5s1.4-2.2,1.3-3.6
			c-0.1-1.4-0.5-2.5-1.3-3.6c-3.4-4.6-6.8-9.1-10.2-13.7c-0.7-0.9-2.1-1.5-3.2-1.5c-1.1,0-2.4,0.5-3.2,1.5s-1.4,2.2-1.3,3.6
			C216.4,52.3,216.8,53.4,217.7,54.5L217.7,54.5z"/>
	</g>
</g>
<g>
	<g>
		<path class="st0" d="M200.6,86.4c16.7,0.4,33.5,0.6,50-2.8c-1.2-3.1-2.3-6.2-3.5-9.2c-16.6,13.1-30.4,30.4-40,50.5
			c-2.7,5.7,5,10.9,7.8,5.1c8.8-18.6,21.4-34.8,36.8-46.9c4.2-3.3,1.6-10.3-3.5-9.2c-15.7,3.3-31.7,2.8-47.6,2.4
			C194.8,76.1,194.8,86.2,200.6,86.4L200.6,86.4z"/>
	</g>
</g>
<g>
	<g>
		<path class="st0" d="M227.7,109.5c3.8,10,8.5,19.5,14.2,28.3c1.4,2.1,4,3.4,6.2,1.8c1.9-1.4,3.1-4.6,1.6-6.9
			c-5.6-8.8-10.4-18.3-14.2-28.3c-0.9-2.4-4.3-3.2-6.2-1.8C227.1,104.3,226.8,106.9,227.7,109.5L227.7,109.5z"/>
	</g>
</g>
<g>
	<g>
		<path class="st0" d="M264.5,72.2c-0.8,19.7-0.1,39.5,2.1,59.1c0.3,2.7,1.9,5.1,4.5,5.1c2.2,0,4.8-2.3,4.5-5.1
			c-2.2-19.6-2.9-39.4-2.1-59.1C273.7,65.7,264.7,65.7,264.5,72.2L264.5,72.2z"/>
	</g>
</g>
<g>
	<g>
		<path class="st0" d="M309.6,66.4c4.3-1.6,8.7-3,13-4.2c2.1-0.6,4.2-1.2,6.3-1.7c0.5-0.1,1.1-0.2,1.6-0.4c0.6-0.1,0.7-0.2,0.2-0.1
			c-0.7-0.5-1.4-1-2.1-1.6c-0.2-0.6-0.2-0.5,0,0.1c0.1,0.2,0.1,0.4,0.1,0.5c0.2,0.6,0.3,1.3,0.4,1.9c0.1,0.4,0.1,0.4,0,0
			c0,0.3,0.1,0.5,0.1,0.8c0,0.6,0.1,1.1,0.1,1.7c0,0.6,0,1.1-0.1,1.7c0,0.3,0,0.6-0.1,0.8c0.1-0.4,0-0.3-0.1,0.3
			c-0.2,1.1-0.4,2.2-0.7,3.3c-0.1,0.5-0.3,1.1-0.5,1.6c0,0-0.5,1.4-0.3,0.9c-1.6,4.3-4,8.2-6.3,12.1c-1.3,2.2-0.5,5.7,1.6,6.9
			c2.3,1.3,4.8,0.5,6.2-1.8c5.7-9.6,11.4-20.8,8.4-32.7c-1-3.8-3-6.9-6.8-6.8c-2.7,0-5.6,1.2-8.2,1.9c-5.2,1.4-10.3,3.1-15.4,4.9
			c-2.2,0.8-3.9,3.5-3.2,6.2C304.8,65.4,307.2,67.3,309.6,66.4L309.6,66.4z"/>
	</g>
</g>
<g>
	<g>
		<path class="st0" d="M307.5,82.9c3.4-0.7,6.8-1.4,10.2-1.9c0.4-0.1,0.8-0.1,1.2-0.2c0.2,0,1.6-0.2,0.6-0.1
			c0.8-0.1,1.6-0.2,2.4-0.3c1.7-0.2,3.5-0.5,5.2-0.7c2.3-0.3,4.6-2.1,4.5-5.1c-0.1-2.5-2-5.3-4.5-5.1c-7.4,0.8-14.7,2-22,3.6
			c-2.3,0.5-3.9,3.8-3.2,6.2C302.7,82.2,305,83.5,307.5,82.9L307.5,82.9z"/>
	</g>
</g>
<g>
	<g>
		<path class="st0" d="M345.2,61.4c1,4.7,1.9,9.4,2.6,14.1c0.2,1.1,0.3,2.2,0.5,3.3c0.2,1.5,0.2,1.5,0.4,3.1
			c0.3,2.4,0.5,4.8,0.7,7.2c0.2,2.6,1.9,5.2,4.5,5.1c2.3-0.1,4.7-2.2,4.5-5.1c-0.8-10.2-2.2-20.4-4.4-30.4c-0.6-2.6-3.3-4.3-5.5-3.5
			C346,56,344.6,58.6,345.2,61.4L345.2,61.4z"/>
	</g>
</g>
<g>
	<g>
		<path class="st0" d="M321.5,108.3c0,1.9,0,3.8,0,5.7c0,2.1-0.1,4.2,0.3,6.2c0.5,2.4,1.9,4.3,3.9,5.3c1.8,0.8,3.7,0.7,5.6,0.8
			c7.2,0.1,14.4,0.1,21.6,0.1c2.4,0,4.6-2.3,4.5-5.1c-0.1-2.7-2-5.1-4.5-5.1c-6.1,0.1-12.3,0.1-18.4,0c-1.5,0-3,0-4.5-0.1
			c-0.3,0-0.6,0-1,0c-0.5,0-0.7-0.3-0.1,0c0.7,0.4,1.2,1.3,1.7,2c-0.3-0.4-0.1-0.4,0,0.1c-0.1-3.3-0.1-6.6-0.1-10
			c0-2.6-2.1-5.2-4.5-5.1C323.6,103.3,321.5,105.4,321.5,108.3L321.5,108.3z"/>
	</g>
</g>
<g>
	<g>
		<path class="st0" d="M374.8,58.9c0.1,4.9,0,9.7-0.3,14.5c-0.3,4.7-0.7,9.6-1.3,13.7c-0.3,2.6,0.6,5.6,3.2,6.2
			c2.1,0.5,5.2-0.7,5.5-3.5c1.4-10.2,2.1-20.6,1.9-30.9c-0.1-2.6-2-5.2-4.5-5.1C376.9,53.9,374.8,56,374.8,58.9L374.8,58.9z"/>
	</g>
</g>
<g>
	<g>
		<path class="st0" d="M377.7,68.7c3.4-0.2,6.9-0.1,10.3,0.2c0.9,0.1,1.7,0.2,2.6,0.3c0.2,0,0.3,0,0.5,0.1c-0.3-0.1-0.3-0.1,0,0
			c0.4,0.1,0.8,0.1,1.2,0.2c0.5,0.1,1,0.2,1.4,0.3c0.1,0,0.2,0,0.3,0.1c0.4,0.1,0.5,0.1,0.1,0c-0.2-0.4-1.3-0.7-1.3-1.5
			c0,0.4,0.4,1.1,0.5,1.5c1.1,3.4,2,6.9,2.6,10.4c0.3,1.8,0.6,3.7,0.9,5.6c-0.1-0.7,0,0.2,0,0.4c0,0.4,0.1,0.8,0.1,1.3
			c0.1,0.5,0.1,1,0.1,1.5c0,0.2,0,0.3,0,0.5c0,0.9,0.1,0.5,0.3-1.3c0.5-0.6,1.1-1.2,1.6-1.8c0.2-0.2,1.4-0.2,1-0.3
			c-0.3-0.1-0.8,0-1.1,0c-0.7,0-1.4,0-2.2,0c-1.5,0-3,0-4.5,0c-3,0-6.1,0-9.1,0c-2.4,0-4.6,2.3-4.5,5.1c0.1,2.7,2,5.1,4.5,5.1
			c4.5,0,9.1,0,13.6,0c2.5,0,5.1,0.3,7.2-1.5c2.5-2.2,2.1-5.7,1.7-8.8c-0.5-5.1-1.4-10.1-2.7-14.9c-0.7-2.4-1.3-5.3-2.5-7.5
			c-1.5-2.8-4.1-3.4-6.8-3.9c-5.4-0.9-10.8-1.3-16.2-1c-2.3,0.1-4.6,2.2-4.5,5.1C373.3,66.3,375.2,68.8,377.7,68.7L377.7,68.7z"/>
	</g>
</g>
<g>
	<g>
		<path class="st0" d="M374.3,116.1c18,0,36-0.1,54-0.1c5.8,0,5.8-10.1,0-10.1c-18,0-36,0.1-54,0.1
			C368.5,106,368.5,116.1,374.3,116.1L374.3,116.1z"/>
	</g>
</g>
<g>
	<g>
		<path class="st0" d="M395.3,113.6c0.3,10.1-0.1,20.9-1.3,30.6c-0.3,2.6,0.6,5.6,3.2,6.2c2.1,0.5,5.2-0.7,5.5-3.5
			c1.4-11.1,2-22.2,1.6-33.3c-0.1-2.6-2-5.2-4.5-5.1C397.4,108.7,395.2,110.8,395.3,113.6L395.3,113.6z"/>
	</g>
</g>
<g>
	<g>
		<path class="st0" d="M76,117.1c-2.1,0.2-4.4,0.4-6.1-0.7c-1.5-0.9-1.9-3.1-1.9-4.8c0-0.9,0.5-1.3,1.2-1.8c0.8-0.5,1.7-0.9,2.5-0.9
			c0.8-0.1,1.5,0.1,2.2,0.6c0.1,0.1,0.5,0.5,0.6,0.7c0.2,0.4,0.4,0.9,0.5,1.4c0.5,2.1,0.7,4.5-0.3,6.3c-0.9,1.7,1.7,3.2,2.6,1.5
			c1.4-2.5,1.2-5.4,0.7-8.2c-0.3-1.4-0.7-2.7-1.8-3.7c-1-1-2.4-1.5-3.7-1.6c-1.4-0.1-2.8,0.3-4,0.9s-2.4,1.5-3,2.7
			c-0.7,1.4-0.4,3.1-0.2,4.6c0.2,1.3,0.8,2.6,1.7,3.7c2.2,2.6,5.9,2.6,9.1,2.3c0.8-0.1,1.5-0.6,1.5-1.5
			C77.5,117.8,76.8,117,76,117.1L76,117.1z"/>
	</g>
</g>
<g>
	<g>
		<path class="st0" d="M115.6,116.7c-1,0.3-2.1,0.7-3.1,0.7c-0.9,0.1-1.6,0-2.2-0.4s-1-0.9-1.2-1.6c-0.1-0.4-0.2-0.8-0.3-1.3
			c-0.1-0.3-0.1-0.7-0.1-1.1c0-0.2,0-0.4,0-0.6c0-0.1,0-0.2,0-0.3c0,0.2,0,0,0-0.1s0.1-0.2,0.1-0.3c-0.1,0.2,0,0,0-0.1
			s0.2-0.2,0.2-0.3c0.4-0.3,0.6-0.3,1.1-0.5s1-0.3,1.5-0.5c0.4-0.1,0.9-0.2,1.2-0.3c0.2,0,0.5,0,0.7,0c0.1,0,0.2,0,0.3,0
			c0.1,0,0.1,0,0,0c0.1,0,0.1,0,0.2,0c0.4,0.1,0.6,0.2,1,0.4c-0.2-0.1,0,0,0.1,0.1s0.2,0.2,0.3,0.3c0,0,0.2,0.3,0.1,0.1
			c-0.1-0.1,0.1,0.2,0.2,0.2c0.3,0.5,0.4,0.7,0.5,1.2c0.1,0.2,0.1,0.5,0.2,0.7c0-0.2,0,0.1,0,0.1c0,0.2,0,0.4,0,0.6
			c0,1.2-0.3,2.4-0.6,3.6c-0.2,0.8,0.2,1.6,1.1,1.8c0.8,0.2,1.7-0.3,1.8-1.1c0.7-2.7,1.2-5.5-0.2-8.1c-0.6-1.1-1.5-2-2.6-2.5
			c-1.4-0.6-2.8-0.6-4.2-0.3c-1.2,0.2-2.5,0.7-3.7,1.3c-1.3,0.6-2,1.9-2.2,3.3c-0.1,1.2,0.1,2.5,0.3,3.6c0.3,1.2,0.8,2.4,1.6,3.2
			c2.4,2.4,5.9,1.7,8.8,0.8c0.8-0.2,1.3-1.1,1.1-1.8C117.3,117,116.4,116.5,115.6,116.7L115.6,116.7z"/>
	</g>
</g>
<g>
	<g>
		<path class="st0" d="M74,148c-1.1-1.4-0.7-3.5-0.1-5c0.7-1.6,1.9-3,3.3-4c3.6-2.5,8.1-2.8,12.3-2.2c0.8,0.1,1.5-0.8,1.5-1.5
			c0-0.9-0.7-1.4-1.5-1.5c-5.2-0.6-10.8,0-14.9,3.5c-3.6,3-5.9,8.7-2.7,12.8c0.5,0.6,1.6,0.5,2.1,0C74.6,149.5,74.5,148.6,74,148
			L74,148z"/>
	</g>
</g>
<g>
	<g>
		<path class="st0" d="M98.8,138.7c1.9,0,3.7,0.4,5.6,0.2c1.7-0.2,3.2-0.9,4.6-1.9c0.7-0.5,1.4-1,2-1.6c0.6-0.5,1.3-1.1,1.7-1.8
			c0.5-0.8,0.6-1.8,0.6-2.7c0-1,0.1-1.9,0.1-2.9c0.1-1.9-2.9-1.9-3,0c0,0.8,0,1.6-0.1,2.4c0,0.5,0.1,1.2-0.2,1.7
			c-0.3,0.5-0.9,0.9-1.4,1.3c-0.5,0.4-1,0.8-1.6,1.2c-1,0.7-2.2,1.2-3.4,1.3c-1.6,0.1-3.3-0.3-4.9-0.2
			C96.8,135.7,96.8,138.7,98.8,138.7L98.8,138.7z"/>
	</g>
</g>
<g>
	<g>
		<path class="st0" d="M491.7,67.8c3.1,0.1,6.2,0.3,9.3,0.8c-0.4-0.1-0.8-0.1-1.2-0.2c1.5,0.2,3,0.5,4.5,0.8
			c1.2,0.3,2.4,0.2,3.5-0.5c0.9-0.6,1.8-1.8,2.1-3c0.5-2.5-0.7-5.7-3.2-6.2c-4.9-1.1-10-1.7-15-1.8c-2.4,0-4.6,2.3-4.5,5.1
			C487.3,65.5,489.2,67.8,491.7,67.8L491.7,67.8z"/>
	</g>
</g>
<g>
	<g>
		<path class="st0" d="M480.8,66.4c0.1,4.7,0.5,9.4,1.2,14.1c0.5,4.1,1.2,8.3,2.3,12.2c1.4,4.7,4.1,8.2,8.7,8.7
			c3.9,0.4,7.9,0.2,11.8,0.2c2.4,0,4.6-2.3,4.5-5.1c-0.1-2.7-2-5.1-4.5-5.1c-3.5,0.1-6.9,0.1-10.4-0.1c-0.3,0-0.6,0-0.9,0
			c1,0.1-0.6-0.1,0,0c0.3,0.1,0.2,0.1-0.1-0.1c0.1,0.1,0.2,0.2,0.4,0.3c-0.1-0.1-0.2-0.2-0.3-0.3c0.3,0.5,0.3,0.5,0.2,0.2
			c-0.1-0.3-0.3-0.6-0.5-0.9c0.3,0.6,0.1,0.3-0.1-0.2c-0.2-0.7-0.4-1.4-0.5-2.1c-1.7-7.6-2.5-14.2-2.7-22c-0.1-2.6-2-5.2-4.5-5.1
			C482.9,61.5,480.7,63.6,480.8,66.4L480.8,66.4z"/>
	</g>
</g>
<g>
	<g>
		<path class="st0" d="M514.5,68.2c-0.5,10.1,0.6,20.4,3,30.2c0.6,2.5,3.2,4.4,5.5,3.5c2.3-0.8,3.8-3.5,3.2-6.2
			c-2.3-9.3-3.1-17.7-2.6-27.5c0.1-2.6-2.2-5.2-4.5-5.1C516.5,63.3,514.6,65.4,514.5,68.2L514.5,68.2z"/>
	</g>
</g>
<g>
	<g>
		<path class="st0" d="M521,88.5c6.1-0.3,12.1-0.4,18.2-0.2c2.4,0.1,4.6-2.4,4.5-5.1c-0.1-2.8-2-5-4.5-5.1
			c-6.1-0.2-12.1-0.1-18.2,0.2c-2.3,0.1-4.6,2.2-4.5,5.1C516.6,86.1,518.4,88.7,521,88.5L521,88.5z"/>
	</g>
</g>
<g>
	<g>
		<path class="st0" d="M509.9,109.5c-4.4,8.8-8.6,17.8-12.4,27c-1,2.4-0.7,5.6,1.6,6.9c2,1.2,5.1,0.7,6.2-1.8
			c3.8-9.2,8-18.2,12.4-27c1.2-2.3,0.6-5.6-1.6-6.9C513.9,106.4,511.1,107.1,509.9,109.5L509.9,109.5z"/>
	</g>
</g>
<g>
	<g>
		<path class="st0" d="M507.7,126.6c3.7,5.8,7.6,11.5,11.7,17.1c0.7,0.9,2.1,1.5,3.2,1.5c1.1,0,2.4-0.5,3.2-1.5s1.4-2.2,1.3-3.6
			c-0.1-1.4-0.5-2.5-1.3-3.6c-1.7-2.3-3.4-4.7-5-7.1c0.2,0.3,0.5,0.7,0.7,1c-2-3-4-6-6-9c-0.7-1.1-1.5-2-2.7-2.3
			c-1.1-0.3-2.5-0.2-3.5,0.5C507.4,121,506.2,124.3,507.7,126.6L507.7,126.6z"/>
	</g>
</g>
<g>
	<g>
		<path class="st0" d="M559.3,69.3c5.3,0,10.6,0,15.9,0c1.2,0,2.4,0,3.6,0c0.2,0,1.7-0.1,1.8,0c-0.5-0.3-1.1-0.6-1.6-0.9
			c0,0.2,0.1,0.3,0.1,0.5c-0.1,0.8,0.1,1.7,0,2.6c-0.2,1.3-0.6,2.6-1,3.8c-3.4,10.9-7.3,21.6-11,32.4c-0.9,2.5,1,5.5,3.2,6.2
			c2.5,0.8,4.7-1,5.5-3.5c2.1-6.3,4.3-12.7,6.4-19c2.1-6.1,5-12.5,5.7-19c0.4-3.3,0.1-6.8-1.6-9.6c-2-3.4-5.2-3.6-8.4-3.6
			c-6.2,0-12.4,0-18.6,0C553.5,59.2,553.5,69.3,559.3,69.3L559.3,69.3z"/>
	</g>
</g>
<g>
	<g>
		<path class="st0" d="M558.5,91.2c5.2-0.5,10.3-1,15.4-1.5c1.2-0.1,2.3-0.5,3.2-1.5c0.8-0.9,1.4-2.3,1.3-3.6
			c-0.1-2.5-2-5.3-4.5-5.1c-5.2,0.5-10.3,1-15.4,1.5c-1.2,0.1-2.3,0.5-3.2,1.5c-0.8,0.9-1.4,2.3-1.3,3.6
			C554.1,88.7,556,91.5,558.5,91.2L558.5,91.2z"/>
	</g>
</g>
<g>
	<g>
		<path class="st0" d="M580.3,89.7c3.8,0,7.6,0,11.5,0c2.4,0,4.6-2.3,4.5-5.1c-0.1-2.7-2-5.1-4.5-5.1c-3.8,0-7.6,0-11.5,0
			c-2.4,0-4.6,2.3-4.5,5.1C575.9,87.4,577.8,89.7,580.3,89.7L580.3,89.7z"/>
	</g>
</g>
<g>
	<g>
		<path class="st0" d="M589.2,78.8c1.6,7.7,3.2,15.4,4.8,23.2c0.5,2.6,3.3,4.3,5.5,3.5c2.4-0.9,3.7-3.5,3.2-6.2
			c-1.6-7.7-3.2-15.4-4.8-23.2c-0.5-2.6-3.3-4.3-5.5-3.5C589.9,73.4,588.6,76,589.2,78.8L589.2,78.8z"/>
	</g>
</g>
<g>
	<g>
		<path class="st0" d="M577.8,117.9c-0.3,7.1-0.1,14.2,0.5,21.3c0.2,2.6,1.9,5.2,4.5,5.1c2.3-0.1,4.7-2.2,4.5-5.1
			c-0.6-7.1-0.8-14.2-0.5-21.3c0.1-2.6-2.1-5.2-4.5-5.1C579.8,113,577.9,115,577.8,117.9L577.8,117.9z"/>
	</g>
</g>
<g>
	<g>
		<path class="st0" d="M585,123.7c4.8-0.9,9.7-1.8,14.5-2.6c0.6-0.1,1.1-0.2,1.7-0.3c-0.7,0.1,0.6,0,0.8,0s0.5,0,0.7,0
			c0.1,0,0.8,0.1,0.3,0s0.4,0.1,0.5,0.2c0.5,0.2-0.3-0.3,0.1,0.1c0.4,0.4-0.2-0.2-0.2-0.2c0.2,0.2,0.3,0.4,0.5,0.6
			c-0.5-0.5-0.2-0.1,0.1,0.3c0.1,0.2,0.2,0.8,0-0.1c0.1,0.2,0.1,0.4,0.2,0.6c0.1,0.5,0.2,1.1,0.3,1.6c0.1,0.6,0-0.2,0-0.3
			c0,0.2,0,0.4,0.1,0.6c0,0.5,0.1,1,0.1,1.5c0,1.2,0,2.4,0.1,3.6c0,2.8,0.1,5.5,0.1,8.3c0,0.6,0,1.2,0,1.8c0,0-0.1,1,0,1.1
			c-0.4-0.7,3.6-2.7,2.5-3.1c-0.2-0.1-0.5,0-0.7,0c0.6,0.1-0.1,0-0.2-0.1c-0.6-0.2-1.2-0.3-1.9-0.6c-2.1-0.7-4.3-1.6-6.4-2.1
			c-5.8-1.4-11.5-1.5-17.3-0.4c-2.3,0.4-3.8,3.8-3.2,6.2c0.8,2.8,3,4,5.5,3.5c0.5-0.1,0.6-0.1,1.3-0.2c0.7-0.1,1.4-0.1,2-0.2
			c1.4-0.1,2.7-0.1,4.1,0c1.4,0.1,2.3,0.2,3.4,0.4c1.4,0.3,2.8,0.6,4.2,1.1c2.8,0.9,5.3,2.1,8.2,2.4c4.3,0.5,7.4-2.6,7.4-7.4
			c0.1-3.2-0.1-6.3-0.1-9.5c0-2.9,0-5.8-0.4-8.8c-0.8-6.5-5.1-11.3-11.2-11.1c-3.2,0.1-6.5,1-9.6,1.6c-3.2,0.6-6.5,1.2-9.7,1.8
			c-2.3,0.4-3.8,3.8-3.2,6.2C580.3,123,582.5,124.1,585,123.7L585,123.7z"/>
	</g>
</g>
</svg>
