<svg width="132" height="180" viewBox="0 0 132 180" fill="none" xmlns="http://www.w3.org/2000/svg">
<path d="M113.143 0H18.8571C8.44263 0 0 8.44263 0 18.8571V113.143C0 123.557 8.44263 132 18.8571 132H113.143C123.557 132 132 123.557 132 113.143V18.8571C132 8.44263 123.557 0 113.143 0Z" fill="url(#paint0_linear_7_66)"/>
<path d="M66 63.9214C64.2232 63.9214 62.4469 64.6607 61.0854 66.1289L4.64062 126.989C7.63613 130.081 11.835 132 16.5 132H115.5C120.165 132 124.364 130.081 127.359 126.989L70.9146 66.1289C69.5531 64.6607 67.7768 63.9214 66 63.9214Z" fill="url(#paint1_linear_7_66)"/>
<path d="M89.5714 47.1428C97.3823 47.1428 103.714 40.8108 103.714 32.9999C103.714 25.189 97.3823 18.8571 89.5714 18.8571C81.7606 18.8571 75.4286 25.189 75.4286 32.9999C75.4286 40.8108 81.7606 47.1428 89.5714 47.1428Z" fill="#FEFFFF"/>
<path d="M27.454 151.182V173H24.812V151.182H27.454ZM32.4105 173V156.636H34.8395V159.193H35.0526C35.3935 158.32 35.9439 157.641 36.7038 157.158C37.4638 156.668 38.3764 156.423 39.4418 156.423C40.5213 156.423 41.4197 156.668 42.1371 157.158C42.8615 157.641 43.4261 158.32 43.831 159.193H44.0014C44.4205 158.348 45.049 157.677 45.8871 157.18C46.7251 156.675 47.7301 156.423 48.902 156.423C50.3651 156.423 51.5618 156.881 52.4922 157.798C53.4226 158.707 53.8878 160.124 53.8878 162.048V173H51.3736V162.048C51.3736 160.841 51.0433 159.978 50.3828 159.46C49.7223 158.941 48.9446 158.682 48.0497 158.682C46.8991 158.682 46.0078 159.03 45.3757 159.726C44.7436 160.415 44.4276 161.288 44.4276 162.347V173H41.8707V161.793C41.8707 160.862 41.5689 160.113 40.9652 159.545C40.3615 158.969 39.5838 158.682 38.6321 158.682C37.9787 158.682 37.3679 158.856 36.7997 159.204C36.2386 159.552 35.7841 160.035 35.4361 160.653C35.0952 161.263 34.9247 161.97 34.9247 162.773V173H32.4105ZM63.3001 173.384C62.2631 173.384 61.3221 173.188 60.4769 172.798C59.6317 172.4 58.9606 171.828 58.4634 171.082C57.9663 170.33 57.7177 169.42 57.7177 168.355C57.7177 167.418 57.9023 166.658 58.2717 166.075C58.641 165.486 59.1346 165.024 59.7525 164.69C60.3704 164.357 61.0522 164.108 61.7979 163.945C62.5508 163.774 63.3072 163.639 64.0671 163.54C65.0614 163.412 65.8675 163.316 66.4854 163.252C67.1104 163.181 67.565 163.064 67.8491 162.901C68.1403 162.737 68.2859 162.453 68.2859 162.048V161.963C68.2859 160.912 67.9982 160.095 67.4229 159.513C66.8548 158.93 65.9918 158.639 64.8342 158.639C63.6339 158.639 62.6928 158.902 62.011 159.428C61.3292 159.953 60.8498 160.514 60.5728 161.111L58.1864 160.259C58.6126 159.264 59.1808 158.49 59.891 157.936C60.6083 157.375 61.3896 156.984 62.2347 156.764C63.087 156.537 63.9251 156.423 64.7489 156.423C65.2745 156.423 65.8782 156.487 66.56 156.615C67.2489 156.736 67.913 156.988 68.5522 157.371C69.1985 157.755 69.7347 158.334 70.1609 159.108C70.587 159.882 70.8001 160.919 70.8001 162.219V173H68.2859V170.784H68.158C67.9876 171.139 67.7035 171.519 67.3058 171.924C66.908 172.329 66.3789 172.673 65.7184 172.957C65.0579 173.241 64.2518 173.384 63.3001 173.384ZM63.6836 171.125C64.6779 171.125 65.516 170.93 66.1978 170.539C66.8867 170.148 67.4052 169.644 67.7532 169.026C68.1083 168.408 68.2859 167.759 68.2859 167.077V164.776C68.1793 164.903 67.945 165.021 67.5827 165.127C67.2276 165.227 66.8157 165.315 66.3469 165.393C65.8853 165.464 65.4343 165.528 64.994 165.585C64.5607 165.635 64.2092 165.678 63.9393 165.713C63.2859 165.798 62.6751 165.937 62.1069 166.129C61.5458 166.313 61.0913 166.594 60.7433 166.97C60.4023 167.339 60.2319 167.844 60.2319 168.483C60.2319 169.357 60.555 170.017 61.2013 170.464C61.8548 170.905 62.6822 171.125 63.6836 171.125ZM81.9941 179.477C80.7797 179.477 79.7356 179.321 78.862 179.009C77.9885 178.703 77.2605 178.298 76.6781 177.794C76.1028 177.297 75.6447 176.764 75.3038 176.196L77.3066 174.79C77.5339 175.088 77.8216 175.429 78.1696 175.812C78.5176 176.203 78.9934 176.54 79.5971 176.825C80.2079 177.116 81.0069 177.261 81.9941 177.261C83.3152 177.261 84.4054 176.942 85.2647 176.303C86.1241 175.663 86.5538 174.662 86.5538 173.298V169.974H86.3407C86.1561 170.273 85.8933 170.642 85.5524 171.082C85.2186 171.516 84.7356 171.903 84.1035 172.244C83.4785 172.577 82.6333 172.744 81.568 172.744C80.247 172.744 79.0609 172.432 78.0098 171.807C76.9657 171.182 76.1383 170.273 75.5275 169.08C74.9238 167.886 74.622 166.437 74.622 164.733C74.622 163.057 74.9167 161.597 75.5062 160.354C76.0957 159.104 76.916 158.138 77.9672 157.457C79.0183 156.768 80.2328 156.423 81.6106 156.423C82.676 156.423 83.5211 156.601 84.1461 156.956C84.7782 157.304 85.2612 157.702 85.595 158.149C85.9359 158.589 86.1987 158.952 86.3833 159.236H86.639V156.636H89.068V173.469C89.068 174.875 88.7484 176.018 88.1092 176.899C87.4771 177.787 86.6248 178.437 85.5524 178.849C84.487 179.268 83.301 179.477 81.9941 179.477ZM81.9089 170.486C82.9174 170.486 83.7697 170.255 84.4657 169.793C85.1618 169.332 85.6909 168.668 86.0531 167.801C86.4153 166.935 86.5964 165.898 86.5964 164.69C86.5964 163.511 86.4189 162.471 86.0637 161.569C85.7086 160.667 85.1831 159.96 84.487 159.449C83.791 158.937 82.9316 158.682 81.9089 158.682C80.8436 158.682 79.9558 158.952 79.2456 159.491C78.5424 160.031 78.0133 160.756 77.6582 161.665C77.3102 162.574 77.1362 163.582 77.1362 164.69C77.1362 165.827 77.3137 166.832 77.6689 167.705C78.0311 168.572 78.5637 169.254 79.2669 169.751C79.9771 170.241 80.8578 170.486 81.9089 170.486ZM100.531 173.341C98.9544 173.341 97.5943 172.993 96.4508 172.297C95.3145 171.594 94.4373 170.614 93.8194 169.357C93.2086 168.092 92.9032 166.622 92.9032 164.946C92.9032 163.27 93.2086 161.793 93.8194 160.514C94.4373 159.229 95.2967 158.227 96.3975 157.51C97.5055 156.786 98.7981 156.423 100.275 156.423C101.128 156.423 101.969 156.565 102.8 156.849C103.631 157.134 104.388 157.595 105.069 158.234C105.751 158.866 106.295 159.705 106.699 160.749C107.104 161.793 107.307 163.078 107.307 164.605V165.67H94.693V163.497H104.75C104.75 162.574 104.565 161.75 104.196 161.026C103.834 160.301 103.315 159.729 102.64 159.31C101.973 158.891 101.184 158.682 100.275 158.682C99.274 158.682 98.4075 158.93 97.676 159.428C96.9515 159.918 96.394 160.557 96.0034 161.345C95.6127 162.134 95.4174 162.979 95.4174 163.881V165.33C95.4174 166.565 95.6305 167.613 96.0566 168.472C96.4899 169.325 97.09 169.974 97.8571 170.422C98.6241 170.862 99.5154 171.082 100.531 171.082C101.192 171.082 101.788 170.99 102.321 170.805C102.861 170.614 103.326 170.33 103.716 169.953C104.107 169.57 104.409 169.094 104.622 168.526L107.051 169.207C106.795 170.031 106.366 170.756 105.762 171.381C105.158 171.999 104.412 172.482 103.525 172.83C102.637 173.17 101.639 173.341 100.531 173.341Z" fill="#F3F3F3"/>
<defs>
<linearGradient id="paint0_linear_7_66" x1="0.00349282" y1="-0.000110418" x2="131.995" y2="131.997" gradientUnits="userSpaceOnUse">
<stop stop-color="#1A9DE2" stop-opacity="0.996078"/>
<stop offset="1" stop-color="#0669BD" stop-opacity="0.996078"/>
</linearGradient>
<linearGradient id="paint1_linear_7_66" x1="70.9166" y1="63.927" x2="70.9166" y2="133.389" gradientUnits="userSpaceOnUse">
<stop stop-color="white"/>
<stop offset="1" stop-color="#E2F2FF"/>
</linearGradient>
</defs>
</svg>
