<svg width="149" height="185" viewBox="0 0 149 185" fill="none" xmlns="http://www.w3.org/2000/svg">
<g clip-path="url(#clip0_7_63)">
<path d="M74.5 139.688C110.502 139.688 139.688 110.502 139.688 74.5C139.688 38.4979 110.502 9.3125 74.5 9.3125C38.4979 9.3125 9.3125 38.4979 9.3125 74.5C9.3125 110.502 38.4979 139.688 74.5 139.688Z" fill="url(#paint0_linear_7_63)"/>
<path d="M61.1716 121.062C72.8417 121.062 82.3021 111.602 82.3021 99.932C82.3021 88.2619 72.8417 78.8015 61.1716 78.8015C49.5015 78.8015 40.0411 88.2619 40.0411 99.932C40.0411 111.602 49.5015 121.062 61.1716 121.062Z" fill="white"/>
<path d="M61.1716 110.497C67.0066 110.497 71.7368 105.767 71.7368 99.932C71.7368 94.0969 67.0066 89.3667 61.1716 89.3667C55.3366 89.3667 50.6063 94.0969 50.6063 99.932C50.6063 105.767 55.3366 110.497 61.1716 110.497Z" fill="white"/>
<path d="M82.0251 28.2046L102.084 33.5793C105.893 34.5999 108.959 38.596 108.959 42.5392V53.2156C108.959 57.1588 105.893 59.5117 102.084 58.4911L82.0251 53.1164C78.2163 52.0958 75.15 48.0998 75.15 44.1566V33.4801C75.15 29.5369 78.2163 27.1841 82.0251 28.2046Z" fill="white"/>
<path d="M75.15 34.3698V99.8744H82.3091V42.822L108.959 49.1612V42.822C108.959 42.822 108.959 35.4573 102.62 33.7587C96.2805 32.0602 81.4892 28.0307 81.4892 28.0307C81.4892 28.0307 75.15 26.6676 75.15 34.3698Z" fill="white"/>
</g>
<path d="M35.8061 156.182H38.9595L46.3743 174.293H46.63L54.0447 156.182H57.1982V178H54.7266V161.423H54.5135L47.6953 178H45.3089L38.4908 161.423H38.2777V178H35.8061V156.182ZM72.4672 171.31V161.636H74.9814V178H72.4672V175.23H72.2967C71.9132 176.061 71.3166 176.768 70.5069 177.35C69.6973 177.925 68.6745 178.213 67.4387 178.213C66.416 178.213 65.5069 177.989 64.7115 177.542C63.916 177.087 63.291 176.406 62.8365 175.496C62.3819 174.58 62.1547 173.426 62.1547 172.034V161.636H64.6689V171.864C64.6689 173.057 65.0027 174.009 65.6703 174.719C66.345 175.429 67.2044 175.784 68.2484 175.784C68.8734 175.784 69.5091 175.624 70.1554 175.305C70.8088 174.985 71.3556 174.495 71.796 173.835C72.2434 173.174 72.4672 172.332 72.4672 171.31ZM91.1772 165.301L88.9187 165.94C88.7766 165.564 88.5671 165.198 88.2901 164.843C88.0202 164.481 87.6509 164.183 87.1822 163.948C86.7134 163.714 86.1133 163.597 85.3817 163.597C84.3803 163.597 83.5458 163.827 82.8782 164.289C82.2177 164.744 81.8874 165.322 81.8874 166.026C81.8874 166.651 82.1147 167.144 82.5692 167.506C83.0238 167.869 83.734 168.17 84.6999 168.412L87.1289 169.009C88.592 169.364 89.6822 169.907 90.3995 170.638C91.1168 171.363 91.4755 172.297 91.4755 173.44C91.4755 174.378 91.2056 175.216 90.6658 175.955C90.1332 176.693 89.3874 177.276 88.4286 177.702C87.4698 178.128 86.3548 178.341 85.0835 178.341C83.4144 178.341 82.033 177.979 80.9393 177.254C79.8455 176.53 79.1531 175.472 78.8619 174.08L81.2482 173.483C81.4755 174.364 81.9052 175.024 82.5373 175.464C83.1765 175.905 84.011 176.125 85.0408 176.125C86.2127 176.125 87.1431 175.876 87.832 175.379C88.5281 174.875 88.8761 174.271 88.8761 173.568C88.8761 173 88.6772 172.524 88.2795 172.141C87.8817 171.75 87.271 171.459 86.4471 171.267L83.7198 170.628C82.2212 170.273 81.1204 169.722 80.4173 168.977C79.7212 168.224 79.3732 167.283 79.3732 166.153C79.3732 165.23 79.6325 164.413 80.1509 163.703C80.6765 162.993 81.3903 162.435 82.2923 162.031C83.2013 161.626 84.2312 161.423 85.3817 161.423C87.0011 161.423 88.2724 161.778 89.1957 162.489C90.1261 163.199 90.7866 164.136 91.1772 165.301ZM95.2601 178V161.636H97.7743V178H95.2601ZM96.5385 158.909C96.0485 158.909 95.6259 158.742 95.2708 158.408C94.9228 158.075 94.7488 157.673 94.7488 157.205C94.7488 156.736 94.9228 156.335 95.2708 156.001C95.6259 155.667 96.0485 155.5 96.5385 155.5C97.0286 155.5 97.4476 155.667 97.7956 156.001C98.1507 156.335 98.3283 156.736 98.3283 157.205C98.3283 157.673 98.1507 158.075 97.7956 158.408C97.4476 158.742 97.0286 158.909 96.5385 158.909ZM109.027 178.341C107.493 178.341 106.172 177.979 105.064 177.254C103.956 176.53 103.104 175.532 102.507 174.261C101.911 172.989 101.612 171.537 101.612 169.903C101.612 168.241 101.918 166.775 102.528 165.504C103.146 164.225 104.006 163.227 105.107 162.51C106.214 161.786 107.507 161.423 108.984 161.423C110.135 161.423 111.172 161.636 112.095 162.062C113.018 162.489 113.775 163.085 114.364 163.852C114.954 164.619 115.32 165.514 115.462 166.537H112.947C112.756 165.791 112.33 165.131 111.669 164.555C111.016 163.973 110.135 163.682 109.027 163.682C108.047 163.682 107.188 163.937 106.449 164.449C105.717 164.953 105.146 165.667 104.734 166.59C104.329 167.506 104.126 168.582 104.126 169.818C104.126 171.082 104.325 172.183 104.723 173.121C105.128 174.058 105.696 174.786 106.428 175.305C107.166 175.823 108.033 176.082 109.027 176.082C109.68 176.082 110.273 175.969 110.806 175.741C111.339 175.514 111.79 175.188 112.159 174.761C112.528 174.335 112.791 173.824 112.947 173.227H115.462C115.32 174.193 114.968 175.063 114.407 175.837C113.853 176.604 113.118 177.215 112.202 177.67C111.293 178.117 110.234 178.341 109.027 178.341Z" fill="#F3F3F3"/>
<defs>
<linearGradient id="paint0_linear_7_63" x1="9.3125" y1="9.3125" x2="139.688" y2="139.688" gradientUnits="userSpaceOnUse">
<stop stop-color="#F09154"/>
<stop offset="1" stop-color="#9E6BA9"/>
</linearGradient>
<clipPath id="clip0_7_63">
<rect width="149" height="149" fill="white"/>
</clipPath>
</defs>
</svg>
