<svg width="149" height="185" viewBox="0 0 149 185" fill="none" xmlns="http://www.w3.org/2000/svg">
<g clip-path="url(#clip0_7_62)">
<path d="M121.062 9.3125H27.9375C22.7943 9.3125 18.625 13.4818 18.625 18.625V130.375C18.625 135.518 22.7943 139.688 27.9375 139.688H121.062C126.206 139.688 130.375 135.518 130.375 130.375V18.625C130.375 13.4818 126.206 9.3125 121.062 9.3125Z" fill="url(#paint0_linear_7_62)"/>
<path d="M92.0895 72.4932L64.2369 52.4235C63.8038 52.1121 63.2765 51.9142 62.7172 51.8534C62.1579 51.7926 61.5902 51.8713 61.0812 52.0803C60.5721 52.2893 60.1431 52.6198 59.8448 53.0327C59.5466 53.4456 59.3916 53.9236 59.3982 54.4101V94.4477C59.3916 94.9342 59.5466 95.4122 59.8448 95.8251C60.1431 96.238 60.5721 96.5684 61.0812 96.7774C61.5902 96.9864 62.1579 97.0652 62.7172 97.0044C63.2765 96.9435 63.8038 96.7457 64.2369 96.4343L92.0895 76.3646C92.6798 75.9298 93.048 75.3118 93.1143 74.6444C93.1805 73.9771 92.9395 73.314 92.4435 72.7989L92.0895 72.4932Z" fill="url(#paint1_linear_7_62)"/>
<path d="M42.5714 18.625H31.9285C30.4591 18.625 29.2678 19.8162 29.2678 21.2857V31.9286C29.2678 33.3981 30.4591 34.5893 31.9285 34.5893H42.5714C44.0409 34.5893 45.2321 33.3981 45.2321 31.9286V21.2857C45.2321 19.8162 44.0409 18.625 42.5714 18.625Z" fill="#5A428B"/>
<path d="M42.5714 42.5714H31.9285C30.4591 42.5714 29.2678 43.7627 29.2678 45.2321V55.875C29.2678 57.3445 30.4591 58.5357 31.9285 58.5357H42.5714C44.0409 58.5357 45.2321 57.3445 45.2321 55.875V45.2321C45.2321 43.7627 44.0409 42.5714 42.5714 42.5714Z" fill="#5A428B"/>
<path d="M42.5714 66.5178H31.9285C30.4591 66.5178 29.2678 67.7091 29.2678 69.1785V79.8214C29.2678 81.2909 30.4591 82.4821 31.9285 82.4821H42.5714C44.0409 82.4821 45.2321 81.2909 45.2321 79.8214V69.1785C45.2321 67.7091 44.0409 66.5178 42.5714 66.5178Z" fill="#5A428B"/>
<path d="M42.5714 90.4643H31.9285C30.4591 90.4643 29.2678 91.6555 29.2678 93.125V103.768C29.2678 105.237 30.4591 106.429 31.9285 106.429H42.5714C44.0409 106.429 45.2321 105.237 45.2321 103.768V93.125C45.2321 91.6555 44.0409 90.4643 42.5714 90.4643Z" fill="#5A428B"/>
<path d="M42.5714 114.411H31.9285C30.4591 114.411 29.2678 115.602 29.2678 117.071V127.714C29.2678 129.184 30.4591 130.375 31.9285 130.375H42.5714C44.0409 130.375 45.2321 129.184 45.2321 127.714V117.071C45.2321 115.602 44.0409 114.411 42.5714 114.411Z" fill="#5A428B"/>
<path d="M117.234 18.625H106.591C105.122 18.625 103.93 19.8162 103.93 21.2857V31.9286C103.93 33.3981 105.122 34.5893 106.591 34.5893H117.234C118.703 34.5893 119.895 33.3981 119.895 31.9286V21.2857C119.895 19.8162 118.703 18.625 117.234 18.625Z" fill="#5A428B"/>
<path d="M117.234 42.5714H106.591C105.122 42.5714 103.93 43.7627 103.93 45.2321V55.875C103.93 57.3445 105.122 58.5357 106.591 58.5357H117.234C118.703 58.5357 119.895 57.3445 119.895 55.875V45.2321C119.895 43.7627 118.703 42.5714 117.234 42.5714Z" fill="#5A428B"/>
<path d="M117.234 66.5178H106.591C105.122 66.5178 103.93 67.7091 103.93 69.1785V79.8214C103.93 81.2909 105.122 82.4821 106.591 82.4821H117.234C118.703 82.4821 119.895 81.2909 119.895 79.8214V69.1785C119.895 67.7091 118.703 66.5178 117.234 66.5178Z" fill="#5A428B"/>
<path d="M117.234 90.4643H106.591C105.122 90.4643 103.93 91.6555 103.93 93.125V103.768C103.93 105.237 105.122 106.429 106.591 106.429H117.234C118.703 106.429 119.895 105.237 119.895 103.768V93.125C119.895 91.6555 118.703 90.4643 117.234 90.4643Z" fill="#5A428B"/>
</g>
<path d="M37.8436 156.182L44.3208 174.548H44.5765L51.0538 156.182H53.8237L45.8123 178H43.0851L35.0737 156.182H37.8436ZM56.8812 178V161.636H59.3954V178H56.8812ZM58.1596 158.909C57.6696 158.909 57.247 158.742 56.8919 158.408C56.5439 158.075 56.3699 157.673 56.3699 157.205C56.3699 156.736 56.5439 156.335 56.8919 156.001C57.247 155.667 57.6696 155.5 58.1596 155.5C58.6497 155.5 59.0687 155.667 59.4167 156.001C59.7718 156.335 59.9494 156.736 59.9494 157.205C59.9494 157.673 59.7718 158.075 59.4167 158.408C59.0687 158.742 58.6497 158.909 58.1596 158.909ZM70.1793 178.341C68.8157 178.341 67.6119 177.996 66.5678 177.308C65.5238 176.612 64.707 175.631 64.1175 174.367C63.5281 173.096 63.2333 171.594 63.2333 169.861C63.2333 168.142 63.5281 166.651 64.1175 165.386C64.707 164.122 65.5273 163.146 66.5785 162.457C67.6296 161.768 68.8441 161.423 70.2219 161.423C71.2873 161.423 72.1289 161.601 72.7468 161.956C73.3718 162.304 73.8477 162.702 74.1744 163.149C74.5082 163.589 74.7674 163.952 74.9521 164.236H75.1651V156.182H77.6793V178H75.2504V175.486H74.9521C74.7674 175.784 74.5046 176.161 74.1637 176.615C73.8228 177.062 73.3363 177.464 72.7042 177.819C72.0721 178.167 71.2305 178.341 70.1793 178.341ZM70.5202 176.082C71.5288 176.082 72.381 175.82 73.0771 175.294C73.7731 174.761 74.3022 174.026 74.6644 173.089C75.0266 172.144 75.2077 171.054 75.2077 169.818C75.2077 168.597 75.0302 167.528 74.6751 166.612C74.32 165.688 73.7944 164.971 73.0984 164.46C72.4023 163.941 71.543 163.682 70.5202 163.682C69.4549 163.682 68.5671 163.955 67.8569 164.502C67.1538 165.042 66.6246 165.777 66.2695 166.707C65.9215 167.631 65.7475 168.668 65.7475 169.818C65.7475 170.983 65.9251 172.041 66.2802 172.993C66.6424 173.937 67.1751 174.69 67.8782 175.251C68.5884 175.805 69.4691 176.082 70.5202 176.082ZM89.494 178.341C87.9173 178.341 86.5572 177.993 85.4137 177.297C84.2773 176.594 83.4002 175.614 82.7823 174.357C82.1715 173.092 81.8661 171.622 81.8661 169.946C81.8661 168.27 82.1715 166.793 82.7823 165.514C83.4002 164.229 84.2596 163.227 85.3604 162.51C86.4684 161.786 87.761 161.423 89.2383 161.423C90.0906 161.423 90.9322 161.565 91.7631 161.849C92.5941 162.134 93.3505 162.595 94.0323 163.234C94.7141 163.866 95.2575 164.705 95.6623 165.749C96.0671 166.793 96.2695 168.078 96.2695 169.605V170.67H83.6559V168.497H93.7127C93.7127 167.574 93.5281 166.75 93.1587 166.026C92.7965 165.301 92.2781 164.729 91.6033 164.31C90.9357 163.891 90.1474 163.682 89.2383 163.682C88.2369 163.682 87.3704 163.93 86.6388 164.428C85.9144 164.918 85.3569 165.557 84.9663 166.345C84.5756 167.134 84.3803 167.979 84.3803 168.881V170.33C84.3803 171.565 84.5934 172.613 85.0195 173.472C85.4528 174.325 86.0529 174.974 86.82 175.422C87.587 175.862 88.4783 176.082 89.494 176.082C90.1545 176.082 90.7511 175.99 91.2837 175.805C91.8235 175.614 92.2887 175.33 92.6793 174.953C93.07 174.57 93.3718 174.094 93.5849 173.526L96.0139 174.207C95.7582 175.031 95.3285 175.756 94.7248 176.381C94.1211 176.999 93.3754 177.482 92.4876 177.83C91.5998 178.17 90.6019 178.341 89.494 178.341ZM106.742 178.341C105.265 178.341 103.968 177.989 102.853 177.286C101.745 176.583 100.879 175.599 100.254 174.335C99.636 173.071 99.3271 171.594 99.3271 169.903C99.3271 168.199 99.636 166.711 100.254 165.44C100.879 164.168 101.745 163.181 102.853 162.478C103.968 161.775 105.265 161.423 106.742 161.423C108.219 161.423 109.512 161.775 110.62 162.478C111.735 163.181 112.601 164.168 113.219 165.44C113.844 166.711 114.157 168.199 114.157 169.903C114.157 171.594 113.844 173.071 113.219 174.335C112.601 175.599 111.735 176.583 110.62 177.286C109.512 177.989 108.219 178.341 106.742 178.341ZM106.742 176.082C107.864 176.082 108.787 175.795 109.512 175.219C110.236 174.644 110.772 173.888 111.12 172.95C111.468 172.013 111.642 170.997 111.642 169.903C111.642 168.81 111.468 167.79 111.12 166.846C110.772 165.901 110.236 165.138 109.512 164.555C108.787 163.973 107.864 163.682 106.742 163.682C105.62 163.682 104.696 163.973 103.972 164.555C103.248 165.138 102.711 165.901 102.363 166.846C102.015 167.79 101.841 168.81 101.841 169.903C101.841 170.997 102.015 172.013 102.363 172.95C102.711 173.888 103.248 174.644 103.972 175.219C104.696 175.795 105.62 176.082 106.742 176.082Z" fill="#F3F3F3"/>
<defs>
<linearGradient id="paint0_linear_7_62" x1="18.8946" y1="9.39303" x2="90.6053" y2="159.166" gradientUnits="userSpaceOnUse">
<stop stop-color="#BF83F9" stop-opacity="0.996078"/>
<stop offset="1" stop-color="#8E4BEB"/>
</linearGradient>
<linearGradient id="paint1_linear_7_62" x1="214.449" y1="-46.9802" x2="259.617" y2="-46.9802" gradientUnits="userSpaceOnUse">
<stop stop-color="#EBEBEB"/>
<stop offset="1" stop-color="white"/>
</linearGradient>
<clipPath id="clip0_7_62">
<rect width="149" height="149" fill="white"/>
</clipPath>
</defs>
</svg>
